#!OML:ASF F:\VICON\USERDATA\INSTALL\rory3\rory3.ASF
:FULLY-SPECIFIED
:DEGREES
18
root -7.36774007003205 17.591813111062304 3.923309714789245 -8.207545152184949 48.17959275791296 -20.10301511807684
lfemur -7.582081504137475 19.45998891638519 11.49448441217491
ltibia 38.99308894838408
lfoot -3.8320085077486894 11.254085875736827
ltoes -38.326884906205905
rfemur -29.178990188426464 9.626579995002247 29.527485834974563
rtibia 30.998095009619444
rfoot -5.385551525263676 22.581487094340446
rtoes 22.514998040379044
lowerback 2.4412627259213027 -6.679660419093969 -16.06798778009926
upperback 3.482648269719225 -8.85461034607418 -1.6355833367977188
thorax 4.567325034551323 -4.861209878727292 6.799210963117332
lowerneck -5.488229419818149 17.115488652538644 5.615400035749152
upperneck 24.15309174956296 26.95808796238803 -11.866189279238949
head 11.202890772467587 11.76488939461256 -1.6093447812499635
lclavicle -7.014204926979148e-15 -5.153635741169023e-15
lhumerus 70.81099792268296 -64.67268887035536 44.75761083453652
lradius 23.73240895733605
lwrist 5.2402994875440605
lhand 2.141268552858133 19.21320027137621
lfingers 7.125020000000003
lthumb -152.36001187240547 227.20300749619753
rclavicle -7.014204926979148e-15 -5.153635741169023e-15
rhumerus -7.6516693980046355 -6.222433173889405 -93.27598688148458
rradius 78.44259441624925
rwrist -47.824986198890514
rhand -64.41098851555296 8.955946380100036
rfingers 7.125020000000003
rthumb -36.340187724998216 -17.27629492024588
19
root -7.360370210062121 17.60071262530299 4.093469092173223 -8.441840841131395 46.37939312867899 -19.506210219435303
lfemur -6.149201973170989 18.92088793202438 12.63248277636394
ltibia 40.144487079928325
lfoot -1.6469706177329861 10.891587740236691
ltoes -37.914887597358046
rfemur -27.699590528134735 9.7370800517046 30.428985328368334
rtibia 30.858595176071063
rfoot -4.469051675609519 24.35368768936693
rtoes 25.838795786566326
lowerback 3.2476514799086296 -7.218909778320269 -16.927187104596932
upperback 3.0608886760573943 -9.756079579947341 -2.0390523595146943
thorax 3.952706552832889 -5.249329090261403 6.877810642218675
lowerneck -4.66564108373057 17.849988831090954 5.513460003123704
upperneck 22.65089279275622 27.77318768578418 -12.191488476948837
head 10.608992307222277 12.227188132748273 -1.689984114884386
lclavicle -7.014205650791113e-15 -5.153635938840741e-15
lhumerus 74.95709685911915 -63.076488007245466 43.98140954808994
lradius 24.229008402614436
lwrist 4.2851804640792714
lhand -1.6874388675246568 15.68790199243072
lfingers 7.125020000000003
lthumb -156.02700857701 224.21101098290018
rclavicle -7.014205650791113e-15 -5.153635938840741e-15
rhumerus -6.192948876883328 -7.399463010053237 -91.42758832072725
rradius 82.7610923353671
rwrist -44.02558843198143
rhand -64.67478859440406 14.933302369502087
rfingers 7.125020000000003
rthumb -36.589887893143334 -11.23599927667354
20
root -7.353060289004057 17.602212527932743 4.2593583122407175 -8.379369670053734 44.59219359363419 -19.022613692086395
lfemur -5.056703342051614 18.79218910779708 13.687181888098333
ltibia 41.03688648613719
lfoot 0.7392718853115667 10.54668852450435
ltoes -35.65898762988678
rfemur -26.706591083977173 9.818739623487517 31.411783801168472
rtibia 30.75739502997292
rfoot -3.002572668896459 25.78778614394188
rtoes 29.43779303932945
lowerback 3.4490711267273095 -7.86877974080886 -17.291286991778072
upperback 2.682929628963392 -10.688589204060044 -2.392491638229532
thorax 3.6571273971972866 -5.6608184177107574 6.664271270372528
lowerneck -4.220381691315161 18.715288050425062 4.9893421055256315
upperneck 21.137294502017134 28.73688732380425 -12.298988987283437
head 10.011293772602082 12.734687469458228 -1.6096848020644257
lclavicle -7.01420641102923e-15 -5.153636154482847e-15
lhumerus 77.73119563699345 -61.15578904793985 44.605110572627964
lradius 24.97280831744328
lwrist 3.003802076350823
lhand -6.307904627145053 12.842503545520024
lfingers 7.125020000000003
lthumb -160.46400484933338 221.88101935899266
rclavicle -7.01420641102923e-15 -5.153636154482847e-15
rhumerus -3.8248573008865705 -8.401822017235036 -89.82778931207466
rradius 86.68819095685407
rwrist -39.061488821359035
rhand -64.75038766511224 15.622501737397826
rfingers 7.125020000000003
rthumb -36.66148804236575 -10.528699737330635
21
root -7.33904053117437 17.610112092937573 4.413077842205848 -7.78536559238681 42.7953948610591 -18.041007512798302
lfemur -3.9624340508977554 18.4891900572657 14.034781007801726
ltibia 41.52538565457985
lfoot 2.850446933728051 10.751987562998195
ltoes -34.831989487054656
rfemur -26.003792077406107 10.145789826077587 31.692983212959525
rtibia 30.90179486246612
rfoot -1.667783849865474 27.08328586129062
rtoes 33.09939070897133
lowerback 3.254661255345808 -8.392958976081438 -18.049986076251688
upperback 2.117350524105465 -11.405288763559366 -2.6445412188827033
thorax 3.4235379258898675 -5.9665181638979865 6.727911201275378
lowerneck -2.770834292415575 19.3946867759889 4.97020212395284
upperneck 19.361295927851728 29.4548876509805 -12.905988101560819
head 9.295935751308111 13.212187707564208 -1.8950323257542616
lclavicle -7.0142050267603874e-15 -5.153636136512438e-15
lhumerus 79.25019482307532 -59.499590299635756 47.19490851699598
lradius 25.454708218270717
lwrist 1.3164329127719085
lhand -9.577522009991554 10.475104637580477
lfingers 7.125020000000003
lthumb -163.61000214581387 219.80301368941593
rclavicle -7.0142050267603874e-15 -5.153636136512438e-15
rhumerus -1.499470097840927 -9.702511508219436 -87.9689907149369
rradius 90.22088987702622
rwrist -34.921692353639045
rhand -63.94028860858809 22.294097249659902
rfingers 7.125020000000003
rthumb -35.89428856244223 -4.048274290572756
22
root -7.327890696334104 17.61351190760507 4.556947409198656 -6.715858759571944 41.07929490501238 -16.626208433642404
lfemur -2.926895357135713 18.054588886966325 13.711282156207496
ltibia 41.6213854521922
lfoot 5.49499556918766 10.598387473378502
ltoes -35.999786696854486
rfemur -25.84789213748155 10.784089111587704 31.439483859386023
rtibia 31.555894333362858
rfoot -0.3792681353269245 28.225085544336565
rtoes 36.376388112199756
lowerback 3.2059215567990105 -8.800498044136745 -18.56008527480926
upperback 1.4568914951250571 -12.000487730095363 -3.133160221807308
thorax 2.872259277825833 -6.166588167628845 6.469841501976598
lowerneck -2.554294748164258 20.049787009772725 4.705752780751882
upperneck 18.500896517546884 30.14068648628842 -12.639188697323462
head 8.938456696638601 13.601786897795 -1.7519535551358496
lclavicle -7.014204361550823e-15 -5.153635813049545e-15
lhumerus 83.13339495216549 -57.993388230043 46.81120938987488
lradius 26.292607953935494
lwrist 1.8809511199210966
lhand -11.639600401757514 9.703545757678384
lfingers 7.125020000000003
lthumb -165.59600040509716 219.18400591949336
rclavicle -7.014204361550823e-15 -5.153635813049545e-15
rhumerus 1.1364985828307468 -11.281191132515199 -85.89519162920904
rradius 93.82458960192596
rwrist -31.28129377574941
rhand -63.30099001503644 23.864595879888263
rfingers 7.125020000000003
rthumb -35.288388356451705 -2.6236251894242804
23
root -7.323290771052813 17.63201086234828 4.6970968905462325 -5.9459025359533655 39.50139555272832 -15.565908286434762
lfemur -1.8443466123482573 17.57179050063774 13.504782062447802
ltibia 41.3348859870182
lfoot 7.604144927046807 10.804988039700834
ltoes -35.568188401336656
rfemur -25.78809221024596 11.452987526254185 31.37948361076753
rtibia 32.52459276064728
rfoot -1.2789237699604445 29.239085324322865
rtoes 35.08608924813634
lowerback 3.059151804547473 -8.961618005645287 -18.792486522410417
upperback 0.91039136850282 -12.235088200346356 -3.663369169903847
thorax 2.3403805026561706 -6.192628126945494 6.048322547884965
lowerneck -1.5943765265694605 20.42718613948654 5.1353815671224865
upperneck 17.157197756333836 30.38568657789142 -12.780988085687731
head 8.423758065340463 13.875886461823574 -1.9588217692879417
lclavicle -7.014205969139101e-15 -5.153636549826271e-15
lhumerus 85.94999339432341 -57.124588501623684 47.82670842290807
lradius 27.171806786309865
lwrist 1.0624729953296566
lhand -12.74589948222999 8.786715411624408
lfingers 7.125020000000003
lthumb -166.6619994930158 218.3400031686617
rclavicle -7.014205969139101e-15 -5.153636549826271e-15
rhumerus 4.002390083087079 -13.356290140407618 -83.64489232132148
rradius 96.80428738361988
rwrist -27.33159506760515
rhand -62.24819089753885 24.795695586167977
rfingers 7.125020000000003
rthumb -34.28939021206347 -1.923315249974003
